<svg xmlns="http://www.w3.org/2000/svg" width="2222" height="2500" preserveAspectRatio="xMidYMid" viewBox="0 0 256 288"><path fill="#E535AB" fill-rule="evenodd" d="M153 33l59 34a26 26 0 0 1 6-4 26 26 0 0 1 25 44 26 26 0 0 1-7 3v68a26 26 0 0 1 7 3c12 7 17 22 10 35-8 12-23 16-36 9a25 25 0 0 1-6-5l-59 34a26 26 0 0 1 2 8 26 26 0 1 1-51-7l-59-34a26 26 0 0 1-5 4 26 26 0 0 1-26-44 26 26 0 0 1 7-3v-68a26 26 0 0 1-7-3 26 26 0 0 1 25-44 26 26 0 0 1 6 4l59-34a26 26 0 0 1-1-7 26 26 0 1 1 51 7zm-7 10l60 35a26 26 0 0 0 2 20c4 6 10 10 16 12v68h-1L146 44v-1zm-36 1L33 178a26 26 0 0 0-1 0v-68c6-2 12-6 16-12a26 26 0 0 0 2-20l60-35v1zm25 6l78 134a25 25 0 0 0-5 6 26 26 0 0 0-3 7H51a26 26 0 0 0-3-7 26 26 0 0 0-5-6l78-134a26 26 0 0 0 7 1l7-1zm12 195l59-34a26 26 0 0 1-1-2H51l-1 1 60 34a26 26 0 0 1 18-8 26 26 0 0 1 19 9z"/></svg>