<svg version="1" xmlns="http://www.w3.org/2000/svg" width="744" height="744" viewBox="0 0 558.000000 558.000000"><path d="M44.5 1.1C30.2 4.3 17.5 13 9.4 25 6.3 29.5 3.6 35.3 4 36.6c.1.4-.3 1-.8 1.3-.6.3-1.4 2.4-1.8 4.6-.5 2.2-.9 108.8-.9 237v233l2.4 7.2c1.3 4 2.7 7.3 3.1 7.3.6 0 2 3.4 1.8 4.3-.3 1 14.9 16.7 16.2 16.7.4 0 1.7.9 3 2 1.2 1.1 2.7 1.7 3.1 1.4.5-.3.9-.1.9.3 0 .9 6.3 3.5 9 3.8.9 0 2.2.5 3 1 .9.6 88.7 1.1 234 1.2 239.8.2 235.3.2 245-3.3.8-.3 1.7-.5 1.9-.4.2.1.7-.2 1-.7.3-.4 2.7-1.9 5.3-3.3 6-3.1 13.6-10.1 17.9-16.5 1.9-2.8 3.4-5.2 3.5-5.5 0-.3 1-2.5 2.2-5 1.1-2.5 2.4-5.9 2.9-7.5.4-1.7.9-107.4 1-235 .2-249.8.5-235.6-4.8-247.4-1.1-2.5-1.9-4.8-1.9-5 .1-.2-.2-.7-.7-1-.5-.3-2-2.2-3.3-4.1-1.4-1.9-3.2-4.3-4-5.3-2-2.5-15-11.9-15-11 0 .5-.4.2-.9-.5-.4-.7-1.4-1.4-2.2-1.5-.8-.2-1.8-.5-2.4-.9-.5-.3-3.7-1.3-7-2.2C510.1.2 485.9 0 279 .1 146.7.2 46.8.6 44.5 1.1z"/></svg>